<?xml version="1.0" encoding="UTF-8"?><svg id="Layer_2" xmlns="http://www.w3.org/2000/svg" viewBox="0 0 512 419.19"><defs><style>.cls-1{fill:#fff;}</style></defs><g id="Layer_1-2"><path class="cls-1" d="M500.4,48.38c-8.04,3.57-16.31,6.58-24.76,9.02,10-11.31,17.63-24.63,22.29-39.19,1.04-3.26-.04-6.84-2.72-8.97-2.68-2.14-6.4-2.39-9.36-.64-17.95,10.64-37.3,18.29-57.61,22.76C407.79,11.37,380.02,0,351.31,0c-60.61,0-109.91,49.31-109.91,109.91,0,4.77,.3,9.52,.9,14.2-75.21-6.6-145.12-43.57-193.14-102.46-1.71-2.1-4.35-3.23-7.05-3.01-2.7,.21-5.13,1.73-6.49,4.07-9.74,16.71-14.89,35.82-14.89,55.26,0,26.48,9.45,51.61,26.16,71.25-5.08-1.76-10.01-3.96-14.71-6.57-2.52-1.41-5.61-1.38-8.12,.05-2.51,1.44-4.08,4.08-4.15,6.98-.01,.49-.01,.97-.01,1.47,0,39.53,21.28,75.12,53.81,94.52-2.79-.28-5.59-.68-8.36-1.21-2.86-.55-5.8,.46-7.73,2.64-1.93,2.18-2.57,5.22-1.68,7.99,12.04,37.59,43.04,65.24,80.51,73.67-31.08,19.47-66.63,29.67-103.94,29.67-7.79,0-15.62-.46-23.28-1.36-3.81-.45-7.45,1.8-8.74,5.42-1.3,3.62,.08,7.66,3.32,9.74,47.94,30.74,103.36,46.98,160.28,46.98,111.9,0,181.91-52.77,220.93-97.04,48.66-55.2,76.56-128.26,76.56-200.45,0-3.02-.05-6.06-.14-9.1,19.2-14.46,35.72-31.97,49.17-52.08,2.04-3.06,1.82-7.09-.55-9.91-2.36-2.82-6.3-3.73-9.66-2.24Z"/></g></svg>